<svg version="1.1" baseProfile="full" xmlns="http://www.w3.org/2000/svg" viewBox="0 0 418 145" preserveAspectRatio="xMidYMid meet">
  <path fill="#131C4E" d="M87.4 124l-.9 1.4c-1.4-1-2.9-1.4-4.4-1.4-1.9 0-3.4.6-4.6 1.9-1.2 1.2-1.8 2.9-1.8 4.9s.6 3.7 1.9 5c1.2 1.3 2.8 2 4.7 2 1.5 0 2.8-.4 4-1.2l.9 1.3c-1.5 1-3.3 1.5-5.3 1.5-2.5 0-4.6-.8-6.2-2.4-1.6-1.6-2.4-3.6-2.4-6 0-2.5.9-4.5 2.6-6.2 1.7-1.7 3.9-2.5 6.4-2.5 1.7.1 3.5.6 5.1 1.7zM99.3 133.4h-8c0 1.4.4 2.5 1.2 3.3.7.8 1.7 1.2 2.9 1.2 1 0 2.1-.3 3.1-1l.5 1.1c-1.4.9-2.8 1.4-4.2 1.4-1.7 0-3-.5-4.1-1.6-1.1-1.2-1.7-2.7-1.7-4.7 0-1.8.5-3.2 1.5-4.3 1-1.1 2.3-1.7 4-1.7 2.2 0 3.6 1 4.3 2.9.3.8.5 2 .5 3.4zm-2.1-1.4c0-1-.2-1.8-.6-2.4-.5-.7-1.2-1.1-2.1-1.1-.9 0-1.6.3-2.2.9-.6.6-.9 1.5-1 2.5h5.9zM112.4 139.1h-2.1v-6.6c0-1.3-.1-2.2-.4-2.7-.4-.8-1.2-1.2-2.3-1.2-1.4 0-2.4.6-2.9 1.7-.2.5-.3 1.4-.3 2.6v6.2h-2.1v-11.8h2.1v1.5c1.2-1.2 2.5-1.8 4.1-1.8 2 0 3.2.8 3.7 2.4.2.6.3 1.6.3 3.1v6.6zM122.4 138.7c-.9.5-1.7.8-2.6.8-1.2 0-2.2-.5-2.8-1.4-.3-.5-.5-1.5-.5-3.1v-6.4h-1.7v-1.3h1.7v-2.8l2.1-.7v3.5h3.1v1.3h-3.1v6.2c0 1.2.1 2 .4 2.5.2.4.7.7 1.3.7.5 0 1.1-.1 1.6-.4l.5 1.1zM133.4 133.4h-8c0 1.4.4 2.5 1.2 3.3.7.8 1.7 1.2 2.9 1.2 1 0 2.1-.3 3.1-1l.6 1.1c-1.4.9-2.8 1.4-4.2 1.4-1.7 0-3-.5-4.1-1.6-1.1-1.2-1.7-2.7-1.7-4.7 0-1.8.5-3.2 1.5-4.3 1-1.1 2.3-1.7 4-1.7 2.2 0 3.6 1 4.3 2.9.2.8.4 2 .4 3.4zm-2-1.4c0-1-.2-1.8-.6-2.4-.5-.7-1.2-1.1-2.1-1.1-.9 0-1.6.3-2.2.9-.6.6-.9 1.5-1 2.5h5.9zM142.9 128.3l-1 1.4c-.8-.4-1.3-.6-1.6-.6-.8 0-1.3.5-1.6 1.5-.2.7-.3 1.7-.3 3v5.6h-2.1v-11.8h2.1v1.6l.5-.7c.5-.8 1.2-1.2 1.9-1.2s1.4.4 2.1 1.2zM156 122.3l-.5 1.1c-.4-.1-.7-.2-1.1-.2-.8 0-1.3.3-1.5.9-.1.2-.1.8-.1 1.7v1.5h2.8v1.3h-2.8v10.5h-2.1v-10.5h-1.9v-1.3h1.9v-1.1c0-1.4.2-2.4.6-2.9.7-1 1.6-1.4 2.9-1.4.6-.1 1.2.1 1.8.4zM168.4 133.1c0 1.8-.5 3.3-1.6 4.5-1.1 1.2-2.5 1.8-4.1 1.8-1.7 0-3.1-.6-4.2-1.7-1.1-1.2-1.6-2.7-1.6-4.5 0-1.8.5-3.3 1.6-4.4 1.1-1.1 2.5-1.7 4.2-1.7 1.6 0 3 .6 4.1 1.7 1.1 1.2 1.6 2.6 1.6 4.3zm-2.2 0c0-1.4-.3-2.5-.9-3.4-.6-.8-1.5-1.2-2.6-1.2s-1.9.4-2.5 1.2c-.6.8-.9 2-.9 3.4 0 1.5.3 2.7.9 3.5.6.8 1.5 1.2 2.6 1.2s1.9-.4 2.5-1.3c.6-.7.9-1.9.9-3.4zM178.2 128.3l-1 1.4c-.8-.4-1.3-.6-1.6-.6-.8 0-1.3.5-1.6 1.5-.2.7-.3 1.7-.3 3v5.6h-2.1v-11.8h2.1v1.6l.5-.7c.5-.8 1.2-1.2 1.9-1.2.6 0 1.4.4 2.1 1.2zM196.9 138.7l-2.3.7-3.8-7.1h-2.4v6.8h-2.3v-16.5h3.8c1.9 0 3.3.3 4.1.9 1 .8 1.6 1.9 1.6 3.4 0 2-.9 3.6-2.7 4.8l4 7zm-3.8-11.6c0-1.1-.4-1.9-1.1-2.4-.4-.3-1.2-.4-2.2-.4h-1.5v6.3h1c1.3 0 2.3-.3 2.9-1 .6-.6.9-1.4.9-2.5zM208.3 133.4h-8c0 1.4.4 2.5 1.2 3.3.7.8 1.7 1.2 2.9 1.2 1 0 2.1-.3 3.1-1l.6 1.1c-1.4.9-2.8 1.4-4.2 1.4-1.7 0-3-.5-4.1-1.6-1.1-1.2-1.7-2.7-1.7-4.7 0-1.8.5-3.2 1.5-4.3 1-1.1 2.3-1.7 4-1.7 2.2 0 3.6 1 4.3 2.9.3.8.4 2 .4 3.4zm-2-1.4c0-1-.2-1.8-.6-2.4-.5-.7-1.2-1.1-2.1-1.1-.9 0-1.6.3-2.2.9-.6.6-.9 1.5-1 2.5h5.9zM217.7 136c0 1-.4 1.8-1.1 2.5-.7.6-1.7 1-2.9 1-1.3 0-2.6-.5-3.7-1.5l1-1.2c.9.8 1.7 1.2 2.5 1.2.6 0 1.1-.2 1.4-.5.4-.3.5-.7.5-1.3 0-.5-.1-.8-.4-1.1-.2-.3-.8-.8-1.6-1.4-1-.7-1.6-1.2-1.9-1.5-.6-.6-.9-1.3-.9-2.1 0-.9.4-1.6 1.1-2.2.7-.6 1.6-.9 2.6-.9 1.1 0 2.1.4 3.1 1.1l-.9 1.1c-.6-.5-1.4-.8-2.1-.8-.5 0-.9.1-1.3.4-.3.2-.5.6-.5 1 0 .5.5 1.1 1.4 1.8 1.4 1 2.4 1.8 2.8 2.4.7.5.9 1.2.9 2zM232.4 133c0 1.9-.5 3.4-1.6 4.6-1.1 1.2-2.4 1.8-4.1 1.8-1.4 0-2.7-.6-3.7-1.9v7.5h-2v-17.7h2v1.8c1-1.4 2.4-2.1 4.2-2.1 1.6 0 2.8.5 3.8 1.6.9 1.2 1.4 2.6 1.4 4.4zm-2.2.1c0-1.4-.3-2.5-.9-3.3-.6-.8-1.5-1.2-2.5-1.2-1.1 0-2 .4-2.7 1.3-.7.9-1 2.1-1 3.5s.3 2.5 1 3.3c.7.8 1.6 1.2 2.7 1.2 1.2 0 2.1-.5 2.7-1.6.4-.9.7-1.9.7-3.2zM246.1 133.1c0 1.8-.5 3.3-1.6 4.5-1.1 1.2-2.5 1.8-4.1 1.8-1.7 0-3.1-.6-4.2-1.7-1.1-1.2-1.6-2.7-1.6-4.5 0-1.8.5-3.3 1.6-4.4 1.1-1.1 2.5-1.7 4.2-1.7 1.6 0 3 .6 4.1 1.7 1.1 1.2 1.6 2.6 1.6 4.3zm-2.2 0c0-1.4-.3-2.5-.9-3.4-.6-.8-1.5-1.2-2.6-1.2s-1.9.4-2.5 1.2c-.6.8-.9 2-.9 3.4 0 1.5.3 2.7.9 3.5.6.8 1.5 1.2 2.6 1.2s1.9-.4 2.5-1.3c.6-.7.9-1.9.9-3.4zM259.5 139.1h-2.1v-6.6c0-1.3-.1-2.2-.4-2.7-.4-.8-1.2-1.2-2.3-1.2-1.4 0-2.4.6-2.9 1.7-.2.5-.3 1.4-.3 2.6v6.2h-2.1v-11.8h2.1v1.5c1.2-1.2 2.5-1.8 4.1-1.8 2 0 3.2.8 3.7 2.4.2.6.3 1.6.3 3.1v6.6zM270 136c0 1-.4 1.8-1.1 2.5-.7.6-1.7 1-2.9 1-1.3 0-2.6-.5-3.7-1.5l1-1.2c.9.8 1.7 1.2 2.5 1.2.6 0 1.1-.2 1.4-.5.4-.3.5-.7.5-1.3 0-.5-.1-.8-.4-1.1-.2-.3-.8-.8-1.6-1.4-1-.7-1.6-1.2-1.9-1.5-.6-.6-.9-1.3-.9-2.1 0-.9.4-1.6 1.1-2.2.7-.6 1.6-.9 2.6-.9 1.1 0 2.1.4 3.1 1.1l-.9 1.1c-.6-.5-1.4-.8-2.1-.8-.5 0-.9.1-1.3.4-.3.2-.5.6-.5 1 0 .5.5 1.1 1.4 1.8 1.4 1 2.4 1.8 2.8 2.4.6.5.9 1.2.9 2zM275.3 123.6c0 .4-.1.7-.4.9-.3.3-.6.4-.9.4-.4 0-.7-.1-.9-.4-.3-.3-.4-.6-.4-.9 0-.9.5-1.4 1.4-1.4.4 0 .7.1.9.4.1.3.3.6.3 1zm-.3 15.5h-2.1v-11.8h2.1v11.8zM288.3 127.6l-5.1 11.6h-1.3l-4.9-11.4 2-.6 3.7 9.1 3.8-9.1 1.8.4zM299.8 133.4h-8c0 1.4.4 2.5 1.2 3.3.7.8 1.7 1.2 2.9 1.2 1 0 2.1-.3 3.1-1l.6 1.1c-1.4.9-2.8 1.4-4.2 1.4-1.7 0-3-.5-4.1-1.6-1.1-1.2-1.7-2.7-1.7-4.7 0-1.8.5-3.2 1.5-4.3 1-1.1 2.3-1.7 4-1.7 2.2 0 3.6 1 4.3 2.9.3.8.4 2 .4 3.4zm-2-1.4c0-1-.2-1.8-.6-2.4-.5-.7-1.2-1.1-2.1-1.1-.9 0-1.6.3-2.2.9-.6.6-.9 1.5-1 2.5h5.9zM318.6 127.2c0 1.6-.6 2.9-1.7 3.9-1.2 1-2.7 1.5-4.6 1.6v-1.5c1.1-.1 2-.3 2.6-.7.9-.6 1.4-1.6 1.4-3s-.5-2.3-1.5-2.8c-.5-.3-1.4-.4-2.5-.4h-1.1v14.8h-2.3v-16.5h3.4c2.1 0 3.5.3 4.4.8 1.2.9 1.9 2.1 1.9 3.8zM331.5 133.1c0 1.8-.5 3.3-1.6 4.5-1.1 1.2-2.5 1.8-4.1 1.8-1.7 0-3.1-.6-4.2-1.7-1.1-1.2-1.6-2.7-1.6-4.5 0-1.8.5-3.3 1.6-4.4 1.1-1.1 2.5-1.7 4.2-1.7 1.6 0 3 .6 4.1 1.7 1.1 1.2 1.6 2.6 1.6 4.3zm-2.3 0c0-1.4-.3-2.5-.9-3.4-.6-.8-1.5-1.2-2.6-1.2s-1.9.4-2.5 1.2c-.6.8-.9 2-.9 3.4 0 1.5.3 2.7.9 3.5.6.8 1.5 1.2 2.6 1.2s1.9-.4 2.5-1.3c.6-.7.9-1.9.9-3.4zM336.7 139.1h-2.1v-17.3h2.1v17.3zM342.9 123.6c0 .4-.1.7-.4.9-.3.3-.6.4-.9.4-.4 0-.7-.1-.9-.4-.3-.3-.4-.6-.4-.9 0-.9.5-1.4 1.4-1.4.4 0 .7.1.9.4.2.3.3.6.3 1zm-.3 15.5h-2.1v-11.8h2.1v11.8zM352.5 138.7c-.9.5-1.7.8-2.6.8-1.2 0-2.2-.5-2.8-1.4-.3-.5-.5-1.5-.5-3.1v-6.4H345v-1.3h1.7v-2.8l2.1-.7v3.5h3.1v1.3h-3.1v6.2c0 1.2.1 2 .4 2.5.2.4.7.7 1.3.7.5 0 1.1-.1 1.6-.4l.4 1.1zM356.5 123.6c0 .4-.1.7-.4.9-.3.3-.6.4-.9.4-.4 0-.7-.1-.9-.4-.3-.3-.4-.6-.4-.9 0-.9.5-1.4 1.4-1.4.4 0 .7.1.9.4.1.3.3.6.3 1zm-.3 15.5h-2.1v-11.8h2.1v11.8zM368.6 138.2c-1.1.8-2.4 1.2-3.9 1.2-1.7 0-3.2-.6-4.3-1.8-1.1-1.2-1.6-2.6-1.6-4.4 0-1.8.6-3.3 1.7-4.4 1.2-1.2 2.6-1.7 4.4-1.7 1.2 0 2.3.3 3.3 1l-.7 1.2c-.8-.4-1.6-.7-2.4-.7-1.2 0-2.2.4-3 1.3-.8.8-1.1 1.9-1.1 3.3 0 1.5.4 2.7 1.1 3.5.7.9 1.7 1.3 3 1.3 1 0 1.9-.3 2.8-.9l.7 1.1zM377.8 136c0 1-.4 1.8-1.1 2.5-.7.6-1.7 1-2.9 1-1.3 0-2.6-.5-3.7-1.5l1-1.2c.9.8 1.7 1.2 2.5 1.2.6 0 1.1-.2 1.4-.5.4-.3.5-.7.5-1.3 0-.5-.1-.8-.4-1.1-.2-.3-.8-.8-1.6-1.4-1-.7-1.6-1.2-1.9-1.5-.6-.6-.9-1.3-.9-2.1 0-.9.4-1.6 1.1-2.2.7-.6 1.6-.9 2.6-.9 1.1 0 2.1.4 3.1 1.1l-.9 1.1c-.6-.5-1.4-.8-2.1-.8-.5 0-.9.1-1.3.4-.3.2-.5.6-.5 1 0 .5.5 1.1 1.4 1.8 1.4 1 2.4 1.8 2.8 2.4.6.5.9 1.2.9 2zM156.3 29.4c-4-8.5-17.9-19.9-40.7-25.8C80-5.5 33.5 2.4 28.4 30.2c-.9 4.9-.1 9.6-.1 9.6S35.3 20 70 16.6c6.5-.7 12.6-.9 18.3-.9-8.4 4.1-14.2 12.8-14.2 22.8 0 14 11.4 25.4 25.4 25.4 14 0 25.4-11.4 25.4-25.4 0-8.3-4-15.7-10.3-20.4 21.5 4 33.4 11.9 36.4 14 6.8 4.8-3.1 15.7-3.1 15.7s13.4-7.7 8.4-18.4zm-37.8-2.5l-4.6 4.4 1.1 6.3-5.6-3-5.6 3 1.1-6.3-4.6-4.4 6.3-.9 2.8-5.7 2.8 5.7 6.3.9z"/>
  <path fill="#8B2332" d="M41.8 84.4c0 6.3-1.9 11.6-5.7 15.7-3.9 4.3-9 6.4-15.3 6.4-6.2 0-11.3-2.1-15.2-6.4C1.9 96 0 90.8 0 84.5c0-6.2 2-11.3 6-15.2 4-4 9-5.9 15.2-5.9 5.9 0 10.8 2 14.7 6 3.9 4 5.9 9 5.9 15zm-6.4.7c0-5.3-1.3-9.5-4-12.8-2.7-3.2-6.3-4.8-10.7-4.8-4.6 0-8.1 1.8-10.8 5.5-2.4 3.3-3.5 7.2-3.5 12s1.2 8.9 3.6 12.1c2.6 3.6 6.3 5.4 10.9 5.4 4.3 0 7.8-1.6 10.5-4.8 2.7-3.3 4-7.4 4-12.6zM77.5 90.3c0 4.7-1.4 8.6-4.1 11.7-2.7 3.1-6.2 4.6-10.3 4.6-3.6 0-6.8-1.6-9.5-4.7v18.9h-5.2V76h5.2v4.6c2.5-3.5 6.1-5.3 10.6-5.3 4 0 7.2 1.4 9.6 4.2 2.5 2.7 3.7 6.3 3.7 10.8zm-5.8.2c0-3.6-.8-6.4-2.4-8.4-1.6-2.1-3.7-3.1-6.5-3.1s-5.1 1.1-6.8 3.4c-1.7 2.2-2.6 5.2-2.6 8.9 0 3.6.8 6.4 2.5 8.4s4 3.1 6.9 3.1c3 0 5.2-1.4 6.8-4.1 1.5-2.2 2.1-4.9 2.1-8.2zM107.1 91.3H86.8c.1 3.5 1.1 6.3 3 8.4 1.9 2.1 4.3 3.1 7.3 3.1 2.6 0 5.2-.9 7.8-2.6l1.5 2.9c-3.6 2.3-7.1 3.5-10.6 3.5-4.2 0-7.7-1.4-10.4-4.1-2.9-3-4.3-7-4.3-11.9 0-4.5 1.3-8.1 3.9-11 2.6-2.9 6-4.3 10.1-4.3 5.6 0 9.2 2.5 10.8 7.4.7 2.1 1.1 5 1.2 8.6zm-5.2-3.4c0-2.5-.5-4.5-1.5-6-1.2-1.9-3-2.9-5.4-2.9-2.3 0-4.1.8-5.6 2.4-1.4 1.6-2.2 3.7-2.4 6.5h14.9zM138.8 105.9h-5.3V89.2c0-3.2-.4-5.5-1.1-6.8-1.1-2.1-3.1-3.1-5.9-3.1-3.6 0-6.1 1.5-7.4 4.4-.6 1.3-.8 3.4-.8 6.5v15.7h-5.4V76h5.4v3.8c2.9-3 6.4-4.5 10.4-4.5 5 0 8.1 2 9.5 6 .5 1.4.7 4 .7 7.9v16.7zM169.3 95.3c0 3.3-1.3 6-3.8 8.1-2.5 2.1-5.8 3.2-9.7 3.2-4.3 0-8.3-1.3-11.9-4l2.7-3.9c3.4 2.4 6.5 3.7 9.2 3.7 2.2 0 4-.6 5.4-1.8 1.4-1.2 2-2.8 2-4.8 0-2.2-1.2-4.4-3.6-6.5-.6-.6-3-2.5-7.3-5.9-4.3-3.2-6.4-6.5-6.4-10 0-2.9 1.2-5.3 3.6-7.2s5.4-2.9 9.1-2.9c3.9 0 7.3 1.3 10.4 3.8l-3.2 3.4c-2.6-2-5-3-7.4-3-1.9 0-3.4.5-4.6 1.5-1.2 1-1.7 2.3-1.7 4 0 1.9 1.2 3.8 3.5 5.7.4.4 2.6 2 6.6 5 2.7 2 4.6 3.9 5.7 5.6.9 1.8 1.4 3.8 1.4 6zM199.3 91.3H179c.1 3.5 1.1 6.3 3 8.4 1.9 2.1 4.3 3.1 7.3 3.1 2.6 0 5.2-.9 7.8-2.6l1.5 2.9c-3.6 2.3-7.1 3.5-10.6 3.5-4.2 0-7.7-1.4-10.4-4.1-2.9-3-4.3-7-4.3-11.9 0-4.5 1.3-8.1 3.9-11 2.6-2.9 6-4.3 10.1-4.3 5.6 0 9.2 2.5 10.8 7.4.7 2.1 1.1 5 1.2 8.6zm-5.2-3.4c0-2.5-.5-4.5-1.5-6-1.2-1.9-3-2.8-5.4-2.8-2.3 0-4.1.8-5.6 2.4-1.4 1.6-2.3 3.7-2.5 6.5h15zM227.2 103.5c-2.9 2.1-6.2 3.1-9.9 3.1-4.4 0-8-1.5-10.8-4.5-2.8-3-4.1-6.7-4.1-11.1 0-4.5 1.5-8.3 4.4-11.2 3-2.9 6.7-4.4 11.3-4.4 3.1 0 6 .8 8.4 2.4l-1.8 3c-2.1-1.1-4.2-1.7-6.1-1.7-3.1 0-5.7 1.1-7.6 3.2-1.9 2.1-2.9 4.9-2.9 8.4 0 3.8.9 6.7 2.8 8.9s4.4 3.3 7.6 3.3c2.5 0 4.8-.8 7.2-2.3l1.5 2.9zM249.1 78.3l-2.6 3.6c-2-1-3.3-1.5-4-1.5-2 0-3.4 1.2-4.2 3.7-.5 1.7-.8 4.2-.8 7.6v14.1h-5.4V76h5.4v4.2l1.3-1.9c1.3-2 3-3 4.9-3 1.6 0 3.4 1 5.4 3zM275.2 91.3h-20.3c.1 3.5 1.1 6.3 3 8.4 1.9 2.1 4.3 3.1 7.3 3.1 2.6 0 5.2-.9 7.8-2.6l1.5 2.9c-3.6 2.3-7.1 3.5-10.6 3.5-4.2 0-7.7-1.4-10.4-4.1-2.9-3-4.3-7-4.3-11.9 0-4.5 1.3-8.1 3.9-11 2.6-2.9 6-4.3 10.1-4.3 5.6 0 9.2 2.5 10.8 7.4.7 2.1 1.1 5 1.2 8.6zm-5.2-3.4c0-2.5-.5-4.5-1.5-6-1.2-1.9-3-2.8-5.4-2.8-2.3 0-4.1.8-5.6 2.4-1.4 1.6-2.3 3.7-2.5 6.5h15zM296.5 104.7c-2.2 1.3-4.3 1.9-6.5 1.9-3.1 0-5.5-1.2-7-3.5-.9-1.3-1.3-3.9-1.3-7.8V79.2h-4.2V76h4.2v-7.2l5.3-1.7v9h7.8v3.2H287V95c0 3.1.3 5.1.9 6.2.6 1.1 1.7 1.7 3.3 1.7 1.4 0 2.7-.4 4-1.1l1.3 2.9zM316.3 97.9c0 2.6-.9 4.7-2.8 6.3-1.9 1.6-4.3 2.4-7.3 2.4-3.4 0-6.6-1.3-9.5-3.8l2.6-3c2.2 2 4.3 3.1 6.4 3.1 1.5 0 2.8-.4 3.7-1.2.9-.8 1.4-1.9 1.4-3.2 0-1.1-.3-2.1-.9-2.9-.6-.8-2-1.9-4.1-3.4-2.4-1.8-4-3-4.8-3.8-1.6-1.6-2.4-3.4-2.4-5.2 0-2.2.9-4.1 2.7-5.6 1.8-1.5 4.1-2.2 6.7-2.2 2.8 0 5.4.9 7.8 2.7l-2.2 2.7c-1.6-1.3-3.4-1.9-5.4-1.9-1.3 0-2.3.3-3.2.9-.8.6-1.3 1.4-1.3 2.4 0 1.3 1.2 2.9 3.6 4.6 3.7 2.6 6.1 4.7 7.2 6.1 1.2 1.3 1.8 3 1.8 5zM330.2 102.5c0 1.1-.4 2-1.1 2.8-.8.7-1.7 1.1-2.8 1.1-1.1 0-2-.4-2.8-1.1-.7-.7-1.1-1.6-1.1-2.7 0-1.2.4-2.1 1.1-2.9.8-.7 1.7-1.1 2.9-1.1 1.1 0 1.9.4 2.7 1.2.7.6 1.1 1.6 1.1 2.7zM365.4 90.7c0 4.6-1.4 8.4-4.1 11.4-2.7 3-6.2 4.5-10.5 4.5s-7.8-1.5-10.6-4.4c-2.8-3-4.1-6.8-4.1-11.4 0-4.6 1.4-8.3 4.1-11.2 2.8-2.9 6.3-4.3 10.7-4.3 4.1 0 7.6 1.5 10.3 4.4 2.8 3 4.2 6.6 4.2 11zm-5.7 0c0-3.6-.8-6.5-2.4-8.5-1.6-2.1-3.8-3.1-6.6-3.1-2.7 0-4.8 1-6.4 3.1-1.6 2.1-2.4 5-2.4 8.6 0 3.8.8 6.8 2.4 8.9 1.6 2.1 3.8 3.2 6.6 3.2 2.7 0 4.9-1.1 6.4-3.2 1.6-2.2 2.4-5.2 2.4-9zM388.7 78.3l-2.6 3.6c-2-1-3.3-1.5-4-1.5-2 0-3.4 1.2-4.2 3.7-.5 1.7-.8 4.2-.8 7.6v14.1h-5.4V76h5.4v4.2l1.3-1.9c1.3-2 3-3 4.9-3 1.7 0 3.5 1 5.4 3zM418 101.1c0 4-.2 6.8-.5 8.3-1.8 7.6-6.8 11.3-15.2 11.3-4.7 0-8.7-1-12-3l1.4-3.5c3.6 1.9 6.9 2.8 10.1 2.8 5.2 0 8.5-1.9 9.9-5.8.6-1.7 1-4.3 1-7.9v-2.2c-2.9 3.6-6.3 5.5-10.1 5.5-4.3 0-7.6-1.5-10.1-4.6-2.3-2.9-3.5-6.5-3.5-10.8 0-4.5 1.4-8.3 4.1-11.3 2.8-3 6.2-4.5 10.3-4.5 4 0 7.1 1.6 9.3 4.8V76h5.3v25.1zm-5.3-10.7c0-3.5-.8-6.3-2.5-8.3-1.7-2-3.9-3-6.8-3-2.7 0-4.8 1-6.4 3-1.6 2-2.3 4.8-2.3 8.3 0 3.7.8 6.7 2.4 9 1.6 2.3 3.8 3.4 6.4 3.4 2.7 0 4.9-1.2 6.6-3.5 1.7-2.2 2.6-5.2 2.6-8.9z"/>
</svg>